PathFileType	4	(X/Y/Z)	C:\Users\Biomechanik\SynologyDrive\AlexP\Athlete_03\Athlete_3_22_07_06\sq_90_EMG\marker_experimental.trc																																																																																																																																																																															
DataRate	CameraRate	NumFrames	NumMarkers	Units	OrigDataRate	OrigDataStartFrame	OrigNumFrames																																																																																																																																																																											
200	200	4	59	mm	200	865	1384																																																																																																																																																																											
Frame#	Time	BL			BR			GLAB			RFHD			LFHD			C7			T6			SPINMOL			SPINM2			SPINM3			T12			BELTOL			BELT2			BELT3			SACROL			SACR2			SACR3			LTHOL			LTH2			LTH3			LSHAOL			LSHA2			LSHA3			LHEE			LTOE			LM5			RTHOL			RTH2			RTH3			RSHAOL			RSHA2			RSHA3			RHEE			RTOE			RM5			STRN			XIPH			LACR			LUAOL			LUA2			LUA3			LLAOL			LLA2			LLA3			LWRU			RACR			RUAOL			RUA3			RLAOL			RLA2			RLA3			RWRU			RUA2			USERMO0			USERMO1			USERMO2			USERMO3			USERMO4			USERMO5		
		X1	Y1	Z1	X2	Y2	Z2	X3	Y3	Z3	X4	Y4	Z4	X5	Y5	Z5	X6	Y6	Z6	X7	Y7	Z7	X8	Y8	Z8	X9	Y9	Z9	X10	Y10	Z10	X11	Y11	Z11	X12	Y12	Z12	X13	Y13	Z13	X14	Y14	Z14	X15	Y15	Z15	X16	Y16	Z16	X17	Y17	Z17	X18	Y18	Z18	X19	Y19	Z19	X20	Y20	Z20	X21	Y21	Z21	X22	Y22	Z22	X23	Y23	Z23	X24	Y24	Z24	X25	Y25	Z25	X26	Y26	Z26	X27	Y27	Z27	X28	Y28	Z28	X29	Y29	Z29	X30	Y30	Z30	X31	Y31	Z31	X32	Y32	Z32	X33	Y33	Z33	X34	Y34	Z34	X35	Y35	Z35	X36	Y36	Z36	X37	Y37	Z37	X38	Y38	Z38	X39	Y39	Z39	X40	Y40	Z40	X41	Y41	Z41	X42	Y42	Z42	X43	Y43	Z43	X44	Y44	Z44	X45	Y45	Z45	X46	Y46	Z46	X47	Y47	Z47	X48	Y48	Z48	X49	Y49	Z49	X50	Y50	Z50	X51	Y51	Z51	X52	Y52	Z52	X53	Y53	Z53	X54	Y54	Z54	X55	Y55	Z55	X56	Y56	Z56	X57	Y57	Z57	X58	Y58	Z58	X59	Y59	Z59
																																																																																																																																																																																		
866	4.325	134.1142426	866.1578979	-2296.31958	270.1508179	875.6652222	-78.541008	557.6872559	980.4500732	-1179.753418	497.9850464	1007.021545	-1103.790771	499.6967773	1001.63147	-1262.823486	312.5353394	950.6771851	-1174.186035	136.3148651	876.4085693	-1178.733276	115.309082	865.3599243	-1182.726074	61.47508621	834.9023438	-1132.24646	67.58066559	825.8483887	-1180.707886	39.54148483	804.1612549	-1173.825317	3.643718243	816.6078491	-1173.980469	-43.1830368	781.1567993	-1119.793701	-50.48139191	786.0057373	-1169.228394	-121.3613739	724.8823853	-1193.555786	-106.6193237	728.8543701	-1144.786011	-160.9529419	691.7412109	-1152.202515	4.323252201	586.7988281	-1444.840942	24.03524208	512.597229	-1468.636108	52.52259827	554.5765381	-1467.518066	161.2134247	317.6916199	-1574.734863	113.6377182	254.5345001	-1571.048706	162.4120026	255.7956238	-1580.772705	61.016819	42.9928627	-1516.498413	263.8617249	46.68122482	-1558.809326	206.3750305	24.57822037	-1657.098999	33.32257462	558.2300415	-906.1204224	107.3570328	569.8691406	-881.4307861	80.24935913	528.4448853	-877.8154907	138.5896912	313.2542725	-798.4525146	163.4789124	239.5714722	-783.3197632	119.9287796	254.5679626	-803.394165	51.23298645	41.94794464	-876.4515381	241.821701	43.33832932	-794.027771	169.7181396	37.17193604	-709.8172607	355.5081787	780.4162598	-1197.133911	273.5611877	638.2889404	-1196.085571	257.1400146	904.6604004	-1367.792969	101.2149429	858.6929932	-1409.211548	53.41514587	835.6159058	-1369.411133	54.14693069	826.4932861	-1418.588501	36.04981232	794.9936523	-1491.411499	87.91720581	797.4813843	-1530.473145	89.98288727	829.2675171	-1491.978271	152.6888123	857.2863159	-1536.361938	293.701355	889.0341187	-1000.206787	145.5430298	823.3190918	-943.2008057	83.28555298	820.3568726	-942.8712158	95.96239471	804.4990234	-862.8733521	150.008728	835.6118774	-879.0883789	146.6928406	822.8292847	-829.8012695	190.2873383	848.0963135	-816.5731201	nan	nan	nan	0.546558022	0.165839002	-0.477741003	0.095592	0.156708002	-0.132084996	0.088168897	0.033989299	-0.118182003	0.033850599	0.174319997	-0.694067001	0.361063004	2.746099949	-0.322506011	2.877089977	0	0
867	4.33	133.8459473	867.302124	-2296.477539	270.0131531	876.4105835	-78.70645142	557.541626	981.059082	-1179.900391	497.8789063	1007.710815	-1103.935913	499.5834961	1002.308655	-1262.972778	312.3387146	951.5465698	-1174.29834	136.0355682	877.3676147	-1178.848145	115.0169067	866.3185425	-1182.830078	61.18387604	835.8691406	-1132.341187	67.27531433	826.8233643	-1180.806641	39.22000885	805.1119995	-1173.94043	3.313073635	817.5662842	-1174.055054	-43.5202179	782.1077881	-1119.880371	-50.82515335	786.9734497	-1169.312134	-121.7415237	725.8773193	-1193.610352	-106.9560623	729.8207397	-1144.861084	-161.2963867	692.708252	-1152.258057	4.074710846	587.402771	-1444.874023	23.71457291	513.1531372	-1468.580933	52.25009918	555.0980225	-1467.487183	160.9653931	317.7499695	-1574.630737	113.4488068	254.5509338	-1571.031006	162.2323151	255.8595886	-1580.695068	60.98020554	42.96297836	-1516.535278	263.8510437	46.68981552	-1558.807983	206.3792877	24.58119583	-1657.089966	33.05756378	558.7890625	-906.2705078	107.1001053	570.2982178	-881.5878296	79.94104004	528.9031982	-878.0064697	138.3112335	313.2979126	-798.6090088	163.2936859	239.6439972	-783.4495239	119.7105637	254.5864258	-803.4880981	51.21051025	41.90617752	-876.4533691	241.8171692	43.33181	-794.0447998	169.7360687	37.19322586	-709.8378296	355.1711121	781.2449951	-1197.266113	273.1453857	639.1735229	-1196.236816	256.8721924	905.5866089	-1367.924194	100.9117432	859.710083	-1409.315552	53.11053467	836.6520386	-1369.513672	53.82275772	827.5427246	-1418.693604	35.6947403	796.0947876	-1491.519043	87.55124664	798.5570679	-1530.595947	89.64890289	830.3365479	-1492.095703	152.3796844	858.3149414	-1536.501587	293.4301758	889.864624	-1000.323364	145.2326508	824.2424927	-943.3191528	82.97716522	821.2965698	-943.0014038	95.64936829	805.4520264	-862.9957886	149.7090607	836.5362549	-879.2203369	146.3977814	823.7594604	-829.9334106	190.0096893	849.0219116	-816.7167358	nan	nan	nan	0.550557017	0.168761998	-0.470946997	0.094068699	0.152932003	-0.131644994	0.083687201	0.035581999	-0.120052002	0.033261701	0.174792007	-0.692749977	0.361039996	2.745980024	-0.322643012	2.877860069	0	0
868	4.335	133.5785522	868.4415894	-2296.637695	269.8781738	877.1503296	-78.87430573	557.390625	981.6809692	-1180.025024	497.7544556	1008.413635	-1104.072021	499.4830017	1002.994263	-1263.112305	312.1401367	952.4186401	-1174.425903	135.7591705	878.3175659	-1178.96106	114.728302	867.2669067	-1182.930908	60.90032196	836.8232422	-1132.430664	66.9757843	827.7854614	-1180.900146	38.90552521	806.0493164	-1174.047607	2.990821838	818.508606	-1174.122192	-43.84604645	783.0410156	-1119.957886	-51.15962601	787.9230957	-1169.386719	-122.1118088	726.8535767	-1193.650879	-107.280014	730.7640991	-1144.924316	-161.6248932	693.6488647	-1152.301514	3.835402966	587.9920044	-1444.900879	23.40408325	513.6956787	-1468.522339	51.98680878	555.6068115	-1467.453125	160.7255859	317.8071899	-1574.530396	113.2679291	254.5666809	-1571.014893	162.0600128	255.9218445	-1580.619385	60.94513321	42.93426895	-1516.570313	263.8409729	46.69750977	-1558.805542	206.3834229	24.585495	-1657.080811	32.81422043	559.3300171	-906.4125366	106.8654709	570.7124634	-881.7377319	79.65587616	529.3459473	-878.1896362	138.0499573	313.340332	-798.7579346	163.1200562	239.7134247	-783.5735474	119.5052567	254.6052246	-803.5764771	51.18855286	41.86723709	-876.4541016	241.8129272	43.3260231	-794.0610352	169.7533569	37.21371078	-709.857605	354.8424988	782.078186	-1197.400024	272.7480469	640.0584106	-1196.380981	256.6025696	906.5123291	-1368.055054	100.606987	860.7260132	-1409.413696	52.8048439	837.6856079	-1369.60791	53.49843216	828.5899658	-1418.791504	35.33789825	797.1921997	-1491.619385	87.1810379	799.6298828	-1530.714844	89.31326294	831.4029541	-1492.209961	152.0681763	859.3389282	-1536.641479	293.1644287	890.7084961	-1000.444763	144.9339447	825.1546021	-943.4312744	82.6861496	822.2145386	-943.1255493	95.35484314	806.3809814	-863.114563	149.420578	837.4451904	-879.3497314	146.1173553	824.6723633	-830.0629272	189.7413025	849.9393921	-816.861145	nan	nan	nan	0.553125978	0.171865001	-0.463862985	0.092881203	0.149864003	-0.132032007	0.079284601	0.0371118	-0.121622004	0.032661099	0.175363004	-0.692197025	0.360071003	2.745810032	-0.322331995	2.878679991	0	0
869	4.34	133.3110352	869.5767822	-2296.799316	269.7450867	877.8843994	-79.04385376	557.2336426	982.3199463	-1180.131592	497.6114502	1009.134644	-1104.202637	499.3929138	1003.69043	-1263.245972	311.9394226	953.2940063	-1174.569092	135.4873352	879.2583618	-1179.072998	114.4450455	868.2050781	-1183.029785	60.62598801	837.7645874	-1132.516113	66.68380737	828.7348022	-1180.989868	38.60033417	806.9743042	-1174.149292	2.678296804	819.4356079	-1174.183594	-44.15894318	783.9570313	-1120.028076	-51.48311996	788.8552856	-1169.453491	-122.4706116	727.8134766	-1193.679443	-107.5896988	731.6859741	-1144.977417	-161.9372406	694.5651855	-1152.334839	3.607367992	588.5667725	-1444.921997	23.10553169	514.2248535	-1468.460571	51.73464203	556.1027832	-1467.41626	160.4950867	317.8634338	-1574.43335	113.0960312	254.5816803	-1570.99939	161.8960114	255.9823303	-1580.54541	60.91205978	42.90712738	-1516.603027	263.8317566	46.70415115	-1558.801758	206.3875275	24.59101105	-1657.071777	32.59316254	559.8540649	-906.5471191	106.6516495	571.1137695	-881.8800659	79.39422607	529.774231	-878.3655396	137.8047028	313.3818054	-798.9007568	162.9567261	239.7802429	-783.692749	119.3115692	254.6247559	-803.6605225	51.16669846	41.83065796	-876.4534912	241.8087769	43.32123184	-794.0761719	169.7696533	37.23324966	-709.8761597	354.5241699	782.916748	-1197.537231	272.371521	640.9439087	-1196.519531	256.3323669	907.437561	-1368.186279	100.3018799	861.7414551	-1409.50708	52.49947739	838.7175293	-1369.694824	53.17523193	829.6356812	-1418.883179	34.98071671	798.2854004	-1491.713501	86.80845642	800.6985474	-1530.830566	88.97745514	832.4660034	-1492.321899	151.7554779	860.3574219	-1536.782104	292.9053955	891.5644531	-1000.572205	144.6477966	826.0563354	-943.5397339	82.41281891	823.112793	-943.2468262	95.07878876	807.2886963	-863.2324219	149.1439514	838.3401489	-879.4783936	145.8514862	825.5697021	-830.1917725	189.4821014	850.8487549	-817.006897	nan	nan	nan	0.554692984	0.175087005	-0.456535995	0.091965601	0.147637993	-0.133320004	0.075095497	0.038452201	-0.122832	0.032046899	0.175995007	-0.692008972	0.358159989	2.745539904	-0.321496993	2.879460096	0	0
